<svg width="1440" height="1148" viewBox="0 0 1440 1148" fill="none" xmlns="http://www.w3.org/2000/svg">
<g clip-path="url(#clip0_303_68)">
<rect width="1440" height="1148" fill="#1B262C"/>
<g filter="url(#filter0_f_303_68)">
<ellipse cx="1219.5" cy="-185.5" rx="413.5" ry="374.5" fill="#4D7D98" fill-opacity="0.2"/>
</g>
<g filter="url(#filter1_f_303_68)">
<ellipse cx="1680.5" cy="486.5" rx="413.5" ry="374.5" fill="#4D7D98" fill-opacity="0.2"/>
</g>
<g filter="url(#filter2_f_303_68)">
<circle cx="-109.5" cy="522.5" r="285.5" fill="url(#paint0_diamond_303_68)" fill-opacity="0.3"/>
</g>
<path d="M685.274 582.891C669.534 536.855 663.296 434.07 764.269 391.22C890.484 337.658 913.791 351.974 915.541 270.918C917.29 189.861 830.67 156.798 915.091 30.2979C999.511 -96.2024 1160.6 44.3685 1162.77 -49.4521C1164.95 -143.273 1078.02 -100.149 1107.9 -170.052C1131.8 -225.975 1175.27 -229.441 1194.02 -224.184" stroke="#5C93B1" stroke-opacity="0.1"/>
<path d="M692.482 589.528C676.625 543.386 670.211 440.41 771.41 397.64C897.909 344.177 921.305 358.555 922.935 277.358C924.565 196.161 837.643 162.907 922.113 36.3132C1006.58 -90.2803 1168.35 50.7865 1170.39 -43.1963C1172.42 -137.179 1085.31 -94.1131 1115.17 -164.094C1139.05 -220.078 1182.65 -223.484 1201.46 -218.189" stroke="#5C93B1" stroke-opacity="0.1"/>
<path d="M699.518 596.044C683.917 550.081 677.919 447.395 778.739 404.361C904.763 350.568 927.982 364.821 929.905 283.829C931.827 202.836 845.491 169.99 929.982 43.4113C1014.47 -83.1677 1174.86 56.9333 1177.23 -36.8135C1179.61 -130.56 1092.8 -87.2827 1122.75 -157.193C1146.72 -213.121 1190.1 -216.679 1208.79 -211.468" stroke="#5C93B1" stroke-opacity="0.1"/>
<path d="M707.518 602.433C691.65 556.307 685.205 453.377 786.367 410.66C912.819 357.263 936.215 371.641 937.818 290.483C939.421 209.324 852.509 176.057 936.918 49.549C1021.33 -76.9586 1183.11 64.0953 1185.11 -29.8433C1187.12 -123.782 1100.04 -80.7641 1129.86 -150.703C1153.73 -206.654 1197.31 -210.043 1216.12 -204.745" stroke="#5C93B1" stroke-opacity="0.1"/>
<path d="M714.971 609.241C699.23 563.204 692.993 460.419 793.966 417.569C920.181 364.007 943.488 378.324 945.238 297.267C946.987 216.21 860.367 183.148 944.787 56.6473C1029.21 -69.853 1190.3 70.7179 1192.47 -23.1027C1194.64 -116.923 1107.71 -73.7997 1137.59 -143.703C1161.49 -199.626 1204.97 -203.092 1223.72 -197.835" stroke="#5C93B1" stroke-opacity="0.1"/>
<path d="M722.301 615.963C706.572 569.91 700.366 467.079 801.375 424.177C927.637 370.549 950.944 384.865 952.721 303.77C954.497 222.675 867.868 189.625 952.348 63.0387C1036.83 -63.5475 1197.91 77.0364 1200.11 -16.8284C1202.32 -110.693 1115.35 -67.5214 1145.26 -137.467C1169.19 -193.423 1212.67 -196.905 1231.42 -191.652" stroke="#5C93B1" stroke-opacity="0.1"/>
<path d="M729.885 622.06C714.017 575.935 707.571 473.004 808.733 430.287C935.186 376.89 958.581 391.269 960.185 310.11C961.788 228.951 874.875 195.684 959.285 69.1763C1043.69 -57.3313 1205.47 83.7226 1207.48 -10.2161C1209.48 -104.155 1122.4 -61.1368 1152.23 -131.075C1176.09 -187.026 1219.68 -190.416 1238.49 -185.117" stroke="#5C93B1" stroke-opacity="0.1"/>
<path d="M736.545 629.116C720.943 583.152 714.946 480.467 815.766 437.432C941.79 383.639 965.009 397.893 966.931 316.9C968.854 235.907 882.518 203.062 967.008 76.4826C1051.5 -50.0963 1211.89 90.0047 1214.26 -3.74211C1216.63 -97.489 1129.82 -54.2113 1159.78 -124.121C1183.75 -180.05 1227.12 -183.608 1245.81 -178.396" stroke="#5C93B1" stroke-opacity="0.1"/>
<path d="M744.668 635.59C728.939 589.537 722.733 486.706 823.742 443.804C950.004 390.176 973.311 404.492 975.087 323.397C976.864 242.302 890.235 209.252 974.715 82.6659C1059.2 -43.9204 1220.27 96.6636 1222.48 2.79873C1224.68 -91.0661 1137.72 -47.8943 1167.63 -117.84C1191.55 -173.796 1235.04 -177.278 1253.79 -172.025" stroke="#5C93B1" stroke-opacity="0.1"/>
<path d="M751.998 642.312C736.257 596.275 730.02 493.49 830.992 450.641C957.208 397.078 980.515 411.395 982.264 330.338C984.014 249.282 897.394 216.219 981.814 89.7185C1066.23 -36.7817 1227.32 103.789 1229.5 9.96856C1231.67 -83.8521 1144.74 -40.7284 1174.62 -110.632C1198.52 -166.554 1242 -170.021 1260.74 -164.764" stroke="#5C93B1" stroke-opacity="0.1"/>
<path d="M759.328 649.034C743.599 602.981 737.393 500.15 838.402 457.248C964.664 403.62 987.971 417.936 989.747 336.841C991.524 255.746 904.895 222.696 989.375 96.1099C1073.86 -30.4763 1234.93 110.108 1237.14 16.2428C1239.34 -77.6221 1152.38 -34.4503 1182.29 -104.396C1206.21 -160.352 1249.7 -163.834 1268.45 -158.58" stroke="#5C93B1" stroke-opacity="0.1"/>
<path d="M766.912 655.132C751.044 609.006 744.598 506.075 845.76 463.358C972.213 409.961 995.608 424.34 997.211 343.181C998.815 262.022 911.902 228.755 996.312 102.248C1080.72 -24.26 1242.5 116.794 1244.51 22.8552C1246.51 -71.0834 1159.43 -28.0655 1189.26 -98.0041C1213.12 -153.955 1256.7 -157.345 1275.51 -152.046" stroke="#5C93B1" stroke-opacity="0.1"/>
<path d="M774.364 661.939C758.624 615.903 752.387 513.118 853.359 470.268C979.575 416.706 1002.88 431.022 1004.63 349.966C1006.38 268.909 919.761 235.846 1004.18 109.346C1088.6 -17.1543 1249.69 123.417 1251.86 29.5959C1254.04 -64.2247 1167.11 -21.101 1196.99 -91.0043C1220.89 -146.927 1264.36 -150.393 1283.11 -145.136" stroke="#5C93B1" stroke-opacity="0.1"/>
<path d="M782.071 668.122C766.33 622.086 760.093 519.301 861.065 476.451C987.281 422.889 1010.59 437.205 1012.34 356.149C1014.09 275.092 927.467 242.029 1011.89 115.529C1096.31 -10.9713 1257.4 129.6 1259.57 35.779C1261.74 -58.0416 1174.81 -14.918 1204.69 -84.8213C1228.59 -140.744 1272.07 -144.21 1290.82 -138.953" stroke="#5C93B1" stroke-opacity="0.1"/>
<path d="M789.024 675.383C773.295 629.331 767.09 526.5 868.099 483.598C994.361 429.97 1017.67 444.285 1019.44 363.191C1021.22 282.096 934.592 249.046 1019.07 122.459C1103.55 -4.12676 1264.63 136.457 1266.84 42.5923C1269.04 -51.2725 1182.08 -8.10068 1211.99 -78.0461C1235.91 -134.002 1279.4 -137.484 1298.15 -132.231" stroke="#5C93B1" stroke-opacity="0.1"/>
<path d="M796.731 681.567C781.002 635.514 774.796 532.683 875.805 489.781C1002.07 436.153 1025.37 450.469 1027.15 369.374C1028.93 288.279 942.298 255.229 1026.78 128.643C1111.26 2.05634 1272.34 142.64 1274.54 48.7754C1276.75 -45.0894 1189.78 -1.91757 1219.69 -71.863C1243.62 -127.819 1287.1 -131.301 1305.85 -126.048" stroke="#5C93B1" stroke-opacity="0.1"/>
<path d="M-246.572 753.641C-177.886 725.474 -22.0356 706.625 51.8809 856.56C144.276 1043.98 124.506 1080.79 247.986 1076.08C371.466 1071.38 414.291 936.405 614.053 1053.52C813.816 1170.63 613.847 1428.83 756.784 1423.61C899.721 1418.39 826.601 1289.87 935.54 1329.04C1022.69 1360.37 1031.72 1426.28 1025.34 1455.33" stroke="#5C93B1" stroke-opacity="0.1"/>
<path d="M-255.848 764.905C-187.436 737.126 -32.0629 718.89 42.1391 868.175C134.891 1054.78 115.293 1091.31 238.428 1087.03C361.563 1082.75 403.839 948.715 603.445 1065.77C803.051 1182.84 604.447 1438.86 746.986 1434.13C889.525 1429.4 816.186 1301.42 924.96 1340.7C1011.98 1372.12 1021.2 1437.68 1014.93 1466.53" stroke="#5C93B1" stroke-opacity="0.1"/>
<path d="M-265.696 777.098C-197.011 748.932 -41.1602 730.082 32.7563 880.017C125.152 1067.44 105.382 1104.25 228.862 1099.54C352.341 1094.84 395.167 959.863 594.929 1076.97C794.691 1194.08 594.722 1452.28 737.659 1447.06C880.596 1441.84 807.476 1313.33 916.415 1352.49C1003.57 1383.82 1012.59 1449.74 1006.22 1478.78" stroke="#5C93B1" stroke-opacity="0.1"/>
<path d="M-274.121 788.886C-205.709 761.108 -50.3357 742.871 23.8663 892.156C116.619 1078.76 97.0197 1115.29 220.155 1111.01C343.29 1106.73 385.566 972.696 585.172 1089.76C784.778 1206.82 586.175 1462.84 728.713 1458.11C871.252 1453.39 797.913 1325.4 906.687 1364.68C993.707 1396.1 1002.92 1461.66 996.654 1490.51" stroke="#5C93B1" stroke-opacity="0.1"/>
<path d="M-284.088 801.273C-215.552 773.293 -59.9763 754.728 14.0414 904.312C106.563 1091.29 86.8781 1127.96 210.155 1123.45C333.433 1118.94 375.993 984.441 575.61 1101.49C775.226 1218.53 575.95 1475.65 718.653 1470.65C861.356 1465.66 788.164 1337.43 896.988 1376.63C984.046 1407.99 993.157 1473.72 986.829 1502.67" stroke="#5C93B1" stroke-opacity="0.1"/>
<path d="M-293.531 812.808C-224.846 784.642 -68.9952 765.792 4.92124 915.727C97.3168 1103.15 77.5466 1139.96 201.026 1135.25C324.506 1130.55 367.331 995.573 567.094 1112.68C766.856 1229.79 566.887 1487.99 709.824 1482.77C852.761 1477.55 779.641 1349.04 888.58 1388.2C975.731 1419.53 984.76 1485.45 978.38 1514.49" stroke="#5C93B1" stroke-opacity="0.1"/>
<path d="M-302.808 824.072C-234.37 796.31 -78.9247 778.118 -4.63968 927.454C88.2166 1114.12 68.6191 1150.65 191.814 1146.41C315.01 1142.17 357.266 1008.12 557.008 1125.26C756.75 1242.41 558.126 1498.42 700.734 1493.74C843.343 1489.05 769.928 1361.02 878.769 1400.34C965.841 1431.79 975.083 1497.37 968.819 1526.22" stroke="#5C93B1" stroke-opacity="0.1"/>
<path d="M-311.804 836.79C-243.144 808.607 -87.3658 789.713 -13.5324 939.597C78.7593 1126.95 58.9876 1163.76 182.407 1159.02C305.827 1154.28 348.672 1019.32 548.298 1136.34C747.925 1253.37 547.977 1511.58 690.844 1506.32C833.711 1501.06 760.667 1372.59 869.539 1411.71C956.637 1443.01 965.641 1508.91 959.256 1537.95" stroke="#5C93B1" stroke-opacity="0.1"/>
<path d="M-321.485 848.712C-252.95 820.731 -97.3737 802.166 -23.356 951.751C69.166 1138.73 49.4807 1175.4 172.758 1170.89C296.035 1166.38 338.596 1031.88 538.212 1148.92C737.829 1265.97 538.553 1523.09 681.256 1518.09C823.958 1513.1 750.767 1384.87 859.59 1424.07C946.649 1455.43 955.759 1521.16 949.432 1550.1" stroke="#5C93B1" stroke-opacity="0.1"/>
<path d="M-331.048 860.441C-262.486 832.476 -106.838 813.955 -32.7374 963.591C59.8885 1150.64 40.2047 1187.3 163.542 1182.83C286.88 1178.36 329.42 1043.85 529.173 1160.97C728.925 1278.1 529.628 1535.21 672.401 1530.26C815.174 1525.3 741.906 1397.03 850.796 1436.27C937.908 1467.66 947.043 1533.41 940.722 1562.36" stroke="#5C93B1" stroke-opacity="0.1"/>
<path d="M-339.639 872.5C-270.979 844.317 -115.201 825.423 -41.3675 975.307C50.9242 1162.66 31.1526 1199.47 154.572 1194.73C277.992 1189.99 320.837 1055.03 520.463 1172.05C720.09 1289.08 520.142 1547.29 663.009 1542.03C805.876 1536.77 732.832 1408.3 841.704 1447.42C928.802 1478.72 937.806 1544.62 931.421 1573.66" stroke="#5C93B1" stroke-opacity="0.1"/>
<path d="M-349.767 883.24C-281.33 855.477 -125.884 837.285 -51.5993 986.621C41.2569 1173.29 21.6594 1209.82 144.855 1205.58C268.05 1201.33 310.306 1067.29 510.048 1184.43C709.79 1301.58 511.166 1557.59 653.775 1552.9C796.383 1548.22 722.968 1420.18 831.809 1459.5C918.882 1490.96 928.123 1556.53 921.86 1585.39" stroke="#5C93B1" stroke-opacity="0.1"/>
<path d="M-358.883 896.151C-290.321 868.186 -134.673 849.665 -60.5725 999.301C32.0534 1186.35 12.3696 1223.01 135.707 1218.54C259.045 1214.07 301.585 1079.56 501.338 1196.68C701.09 1313.81 501.793 1570.92 644.566 1565.97C787.339 1561.01 714.071 1432.74 822.961 1471.98C910.073 1503.37 919.208 1569.12 912.887 1598.07" stroke="#5C93B1" stroke-opacity="0.1"/>
<path d="M-368.445 907.879C-299.909 879.899 -144.333 861.334 -70.3157 1010.92C22.2064 1197.9 2.52109 1234.57 125.798 1230.06C249.076 1225.54 291.636 1091.05 491.253 1208.09C690.869 1325.14 491.593 1582.26 634.296 1577.26C776.999 1572.26 703.807 1444.04 812.631 1483.24C899.689 1514.6 908.8 1580.33 902.472 1609.27" stroke="#5C93B1" stroke-opacity="0.1"/>
<path d="M-378.007 919.608C-309.446 891.643 -153.798 873.123 -79.6971 1022.76C12.9289 1209.8 -6.75499 1246.47 116.583 1242C239.92 1237.52 282.461 1103.01 482.213 1220.14C681.965 1337.27 482.669 1594.38 625.441 1589.42C768.214 1584.47 694.947 1456.2 803.836 1495.44C890.948 1526.83 900.083 1592.58 893.762 1621.52" stroke="#5C93B1" stroke-opacity="0.1"/>
<path d="M660.412 871.76C665.924 797.728 718.738 649.893 885.901 650.805C1094.85 651.945 1118.94 686.086 1169.94 573.529C1220.93 460.972 1119.34 362.324 1313.41 235.992C1507.47 109.66 1649.03 403.965 1708.26 273.774C1767.49 143.582 1619.85 151.535 1703.58 71.5967C1770.57 7.64595 1833.57 29.0394 1856.7 47.73" stroke="#5C93B1" stroke-opacity="0.1"/>
<path d="M666.341 885.093C672.077 811.48 725.227 664.345 891.935 664.712C1100.32 665.169 1124.23 699.031 1175.45 586.973C1226.68 474.915 1125.68 377.177 1319.63 250.962C1513.58 124.747 1653.8 416.859 1713.3 287.243C1772.79 157.628 1625.52 166.012 1709.28 86.2738C1776.3 22.4834 1839.06 43.5469 1862.06 62.0525" stroke="#5C93B1" stroke-opacity="0.1"/>
<path d="M672.845 899.354C678.357 825.322 731.171 677.487 898.333 678.399C1107.29 679.539 1131.37 713.679 1182.37 601.123C1233.36 488.566 1131.78 389.918 1325.84 263.586C1519.9 137.254 1661.46 431.559 1720.7 301.368C1779.93 171.176 1632.28 179.129 1716.02 99.1907C1783 35.2399 1846 56.6333 1869.13 75.3239" stroke="#5C93B1" stroke-opacity="0.1"/>
<path d="M679.623 912.16C685.359 838.546 738.509 691.412 905.218 691.778C1113.6 692.235 1137.52 726.097 1188.74 614.039C1239.96 501.981 1138.96 404.243 1332.91 278.028C1526.86 151.813 1667.09 443.925 1726.58 314.31C1786.07 184.695 1638.8 193.078 1722.57 113.34C1789.58 49.5496 1852.34 70.6131 1875.34 89.1187" stroke="#5C93B1" stroke-opacity="0.1"/>
<path d="M686.247 926.613C691.858 852.799 744.804 705.336 911.698 706.001C1120.32 706.832 1144.32 740.833 1195.39 628.545C1246.47 516.256 1145.19 418.056 1339.13 291.825C1533.06 165.594 1673.97 458.796 1733.3 328.914C1792.63 199.033 1645.21 207.177 1728.92 127.36C1795.89 63.5055 1858.76 84.7417 1881.83 103.342" stroke="#5C93B1" stroke-opacity="0.1"/>
<path d="M692.344 940.217C697.855 866.185 750.669 718.35 917.832 719.262C1126.79 720.402 1150.87 754.543 1201.87 641.986C1252.86 529.429 1151.27 430.781 1345.34 304.449C1539.4 178.117 1680.96 472.422 1740.19 342.231C1799.43 212.04 1651.78 219.992 1735.51 140.054C1802.5 76.1031 1865.5 97.4965 1888.63 116.187" stroke="#5C93B1" stroke-opacity="0.1"/>
<path d="M698.272 953.551C704.034 879.921 757.256 732.742 924.047 733.057C1132.54 733.45 1156.45 767.31 1207.73 655.215C1259.01 543.12 1158 445.394 1352.08 319.095C1546.16 192.796 1686.37 484.921 1745.93 355.262C1805.5 225.604 1658.15 234.034 1741.98 154.255C1809.05 90.4317 1871.83 111.48 1894.84 129.982" stroke="#5C93B1" stroke-opacity="0.1"/>
<path d="M705.626 967.283C711.112 893.267 763.854 745.477 930.934 746.44C1139.78 747.645 1163.87 781.786 1214.8 669.267C1265.74 556.748 1164.17 458.087 1358.1 331.839C1552.03 205.592 1693.61 499.883 1752.77 369.735C1811.93 239.588 1664.36 247.493 1748.03 167.596C1814.96 103.678 1877.94 125.087 1901.06 143.781" stroke="#5C93B1" stroke-opacity="0.1"/>
<path d="M711.962 981.273C717.573 907.459 770.519 759.996 937.414 760.661C1146.03 761.492 1170.03 795.493 1221.11 683.205C1272.19 570.916 1170.9 472.717 1364.84 346.485C1558.78 220.254 1699.68 513.456 1759.01 383.574C1818.34 253.693 1670.92 261.837 1754.64 182.02C1821.61 118.166 1884.48 139.402 1907.54 158.002" stroke="#5C93B1" stroke-opacity="0.1"/>
<path d="M718.179 995.07C723.816 921.24 776.833 773.732 943.81 774.346C1152.53 775.112 1176.53 809.113 1227.67 696.787C1278.81 584.461 1177.51 486.274 1371.58 359.959C1565.65 233.643 1706.54 526.858 1765.94 396.933C1825.33 267.008 1677.84 275.2 1761.62 195.341C1828.65 131.454 1891.54 152.675 1914.61 171.271" stroke="#5C93B1" stroke-opacity="0.1"/>
<path d="M725.125 1008.15C730.611 934.131 783.353 786.34 950.433 787.303C1159.28 788.508 1183.37 822.649 1234.3 710.13C1285.24 597.611 1183.67 498.95 1377.6 372.702C1571.52 246.455 1713.11 540.747 1772.27 410.599C1831.43 280.451 1683.86 288.356 1767.53 208.459C1834.46 144.541 1897.44 165.95 1920.56 184.644" stroke="#5C93B1" stroke-opacity="0.1"/>
<path d="M730.204 1022.01C735.966 948.379 789.187 801.199 955.979 801.514C1164.47 801.907 1188.38 835.768 1239.66 723.672C1290.94 611.577 1189.93 513.851 1384.01 387.552C1578.1 261.253 1718.3 553.378 1777.87 423.719C1837.43 294.061 1690.08 302.491 1773.91 222.712C1840.98 158.889 1903.76 179.937 1926.77 198.439" stroke="#5C93B1" stroke-opacity="0.1"/>
<path d="M737.677 1035.93C743.314 962.103 796.332 814.595 963.309 815.209C1172.03 815.975 1196.03 849.976 1247.17 737.65C1298.31 625.324 1197.01 527.137 1391.08 400.822C1585.15 274.506 1726.04 567.721 1785.43 437.796C1844.83 307.871 1697.34 316.063 1781.12 236.204C1848.14 172.317 1911.04 193.538 1934.1 212.134" stroke="#5C93B1" stroke-opacity="0.1"/>
<path d="M743.894 1049.73C749.505 975.916 802.451 828.453 969.345 829.118C1177.96 829.949 1201.96 863.95 1253.04 751.662C1304.12 639.373 1202.84 541.174 1396.77 414.943C1590.71 288.711 1731.62 581.913 1790.94 452.031C1850.27 322.15 1702.85 330.294 1786.57 250.477C1853.54 186.623 1916.41 207.859 1939.47 226.459" stroke="#5C93B1" stroke-opacity="0.1"/>
<path d="M750.11 1063.53C755.747 989.697 808.765 842.189 975.742 842.803C1184.46 843.569 1208.46 877.57 1259.6 765.244C1310.74 652.918 1209.44 554.731 1403.51 428.416C1597.58 302.1 1738.47 595.315 1797.87 465.39C1857.26 335.465 1709.77 343.657 1793.55 263.798C1860.58 199.911 1923.47 221.132 1946.54 239.728" stroke="#5C93B1" stroke-opacity="0.1"/>
<path d="M642.348 1028.91C568.387 1035.31 414.009 1006.81 388.182 841.651C355.897 635.203 385.747 605.967 266.485 573.625C147.223 541.284 66.0869 657.337 -89.6486 485.971C-245.384 314.605 22.4994 127.807 -115.488 90.1532C-253.475 52.4991 -222.017 196.973 -314.315 127.099C-388.154 71.1993 -377.109 5.58909 -362.356 -20.2286" stroke="#5C93B1" stroke-opacity="0.1"/>
<path d="M654.562 1020.93C580.979 1027.03 427.239 998.092 400.945 833.47C368.077 627.692 397.68 598.673 278.874 566.029C160.068 533.384 79.7351 648.706 -75.8664 477.435C-231.468 306.163 34.4642 121.033 -102.996 83.0292C-240.456 45.0252 -208.633 189.062 -300.739 119.124C-374.423 63.173 -363.665 -2.14836 -349.076 -27.8152" stroke="#5C93B1" stroke-opacity="0.1"/>
<path d="M667.599 1012.22C593.638 1018.62 439.26 990.124 413.433 824.966C381.148 618.518 410.998 589.282 291.736 556.94C172.474 524.599 91.3379 640.652 -64.3977 469.286C-220.133 297.92 47.7504 111.122 -90.2366 73.4683C-228.224 35.8142 -196.766 180.288 -289.064 110.414C-362.903 54.5144 -351.858 -11.0958 -337.105 -36.9135" stroke="#5C93B1" stroke-opacity="0.1"/>
<path d="M679.156 1003.49C605.573 1009.59 451.833 980.653 425.539 816.031C392.671 610.253 422.274 581.234 303.468 548.589C184.662 515.945 104.329 631.267 -51.2722 459.996C-206.874 288.724 59.0584 103.594 -78.4018 65.5902C-215.862 27.5861 -184.039 171.623 -276.144 101.685C-349.829 45.7339 -339.071 -19.5874 -324.482 -45.2542" stroke="#5C93B1" stroke-opacity="0.1"/>
<path d="M692.365 994.636C618.602 1000.9 464.571 972.213 438.542 807.359C406.007 601.293 435.733 572.166 316.723 539.699C197.712 507.233 116.97 622.912 -38.6465 451.653C-194.263 280.394 72.6373 94.4216 -65.0594 56.6234C-202.756 18.8253 -171.145 163.047 -263.321 93.17C-337.062 37.2686 -326.151 -28.1862 -311.478 -53.9259" stroke="#5C93B1" stroke-opacity="0.1"/>
<path d="M704.819 986.443C630.858 992.839 476.48 964.342 450.653 799.184C418.368 592.737 448.218 563.5 328.956 531.159C209.694 498.817 128.558 614.871 -27.1778 443.505C-182.913 272.138 84.9703 85.3408 -53.0168 47.6867C-191.004 10.0327 -159.546 154.506 -251.844 84.6322C-325.683 28.7329 -314.638 -36.8773 -299.886 -62.695" stroke="#5C93B1" stroke-opacity="0.1"/>
<path d="M717.033 978.459C643.43 984.544 489.634 955.539 463.276 790.844C430.328 584.974 459.93 555.953 341.077 523.255C222.225 490.557 141.908 605.897 -13.7985 434.506C-169.505 263.114 96.4431 78.0021 -41.0709 39.9362C-178.585 1.87024 -146.703 145.974 -238.86 75.9772C-312.585 19.9794 -301.847 -45.3639 -287.262 -71.0358" stroke="#5C93B1" stroke-opacity="0.1"/>
<path d="M729.413 969.004C655.472 975.423 501.15 946.99 475.386 781.905C443.182 575.55 473.033 546.315 353.817 514.026C234.602 481.738 153.45 597.774 -2.18067 426.528C-157.811 255.282 110.056 68.4666 -27.8768 30.8744C-165.81 -6.71784 -134.411 137.688 -226.658 67.8731C-300.456 12.021 -289.391 -53.5673 -274.635 -79.3799" stroke="#5C93B1" stroke-opacity="0.1"/>
<path d="M742.21 960.512C668.448 966.775 514.417 938.089 488.388 773.235C455.852 567.169 485.579 538.042 366.568 505.575C247.557 473.109 166.815 588.788 11.1988 417.529C-144.417 246.27 122.483 60.2976 -15.2141 22.4995C-152.911 -15.2987 -121.3 128.923 -213.476 59.0461C-287.217 3.14465 -276.306 -62.3101 -261.633 -88.0499" stroke="#5C93B1" stroke-opacity="0.1"/>
<path d="M754.835 952.17C681.054 958.41 526.967 929.66 500.874 764.733C468.258 558.574 497.984 529.446 378.926 496.926C259.869 464.406 179.142 580.103 23.4214 408.724C-132.3 237.345 134.616 51.3903 -3.13431 13.5304C-140.885 -24.3296 -109.215 119.959 -201.443 50.0236C-275.225 -5.92496 -264.333 -71.4017 -249.664 -97.1465" stroke="#5C93B1" stroke-opacity="0.1"/>
<path d="M766.633 943.222C692.692 949.641 538.37 921.208 512.606 756.124C480.402 549.769 510.253 520.533 391.037 488.245C271.822 455.957 190.67 571.993 35.0392 400.747C-120.592 229.501 147.276 42.685 9.34301 5.09285C-128.59 -32.4993 -97.1912 111.907 -189.438 42.0916C-263.236 -13.7605 -252.172 -79.3488 -237.415 -105.161" stroke="#5C93B1" stroke-opacity="0.1"/>
<path d="M779.504 935.992C705.901 942.077 552.105 913.073 525.747 748.377C492.799 542.507 522.401 513.487 403.548 480.789C284.696 448.091 204.379 563.431 48.6723 392.039C-107.034 220.647 158.914 35.5356 21.3999 -2.53026C-116.114 -40.5962 -84.2324 103.508 -176.389 33.5108C-250.115 -22.487 -239.376 -87.8303 -224.791 -113.502" stroke="#5C93B1" stroke-opacity="0.1"/>
<path d="M792.055 926.388C718.273 932.629 564.187 903.878 538.094 738.951C505.478 532.793 535.203 503.664 416.146 471.144C297.089 438.625 216.362 554.322 60.6412 382.943C-95.0797 211.563 171.836 25.6088 34.0855 -12.2511C-103.665 -50.1111 -71.9953 94.1778 -164.223 24.2421C-238.005 -31.7065 -227.113 -97.1832 -212.444 -122.928" stroke="#5C93B1" stroke-opacity="0.1"/>
<path d="M804.681 918.046C730.919 924.309 576.887 895.622 550.859 730.769C518.323 524.702 548.05 495.575 429.039 463.109C310.028 430.642 229.286 546.321 73.6696 375.063C-81.9465 203.804 184.953 17.8312 47.2567 -19.967C-90.44 -57.7651 -58.8289 86.4564 -151.005 16.5796C-224.746 -39.3218 -213.835 -104.777 -199.162 -130.516" stroke="#5C93B1" stroke-opacity="0.1"/>
<path d="M817.306 909.703C743.524 915.944 589.437 887.193 563.345 722.266C530.729 516.108 560.454 486.979 441.397 454.46C322.34 421.94 241.613 537.637 85.8922 366.258C-69.8287 194.879 197.087 8.92391 59.3365 -28.9361C-78.4141 -66.7961 -46.7443 77.4928 -138.972 7.55715C-212.754 -48.3914 -201.862 -113.868 -187.193 -139.613" stroke="#5C93B1" stroke-opacity="0.1"/>
<g filter="url(#filter3_f_303_68)">
<circle cx="-65.5" cy="51.5" r="285.5" fill="url(#paint1_diamond_303_68)" fill-opacity="0.3"/>
</g>
</g>
<defs>
<filter id="filter0_f_303_68" x="666" y="-700" width="1107" height="1029" filterUnits="userSpaceOnUse" color-interpolation-filters="sRGB">
<feFlood flood-opacity="0" result="BackgroundImageFix"/>
<feBlend mode="normal" in="SourceGraphic" in2="BackgroundImageFix" result="shape"/>
<feGaussianBlur stdDeviation="70" result="effect1_foregroundBlur_303_68"/>
</filter>
<filter id="filter1_f_303_68" x="1127" y="-28" width="1107" height="1029" filterUnits="userSpaceOnUse" color-interpolation-filters="sRGB">
<feFlood flood-opacity="0" result="BackgroundImageFix"/>
<feBlend mode="normal" in="SourceGraphic" in2="BackgroundImageFix" result="shape"/>
<feGaussianBlur stdDeviation="70" result="effect1_foregroundBlur_303_68"/>
</filter>
<filter id="filter2_f_303_68" x="-515" y="117" width="811" height="811" filterUnits="userSpaceOnUse" color-interpolation-filters="sRGB">
<feFlood flood-opacity="0" result="BackgroundImageFix"/>
<feBlend mode="normal" in="SourceGraphic" in2="BackgroundImageFix" result="shape"/>
<feGaussianBlur stdDeviation="60" result="effect1_foregroundBlur_303_68"/>
</filter>
<filter id="filter3_f_303_68" x="-471" y="-354" width="811" height="811" filterUnits="userSpaceOnUse" color-interpolation-filters="sRGB">
<feFlood flood-opacity="0" result="BackgroundImageFix"/>
<feBlend mode="normal" in="SourceGraphic" in2="BackgroundImageFix" result="shape"/>
<feGaussianBlur stdDeviation="60" result="effect1_foregroundBlur_303_68"/>
</filter>
<radialGradient id="paint0_diamond_303_68" cx="0" cy="0" r="1" gradientUnits="userSpaceOnUse" gradientTransform="translate(-110 522) rotate(87.4209) scale(500.006)">
<stop stop-color="#4D7D98"/>
<stop offset="1" stop-color="#496575" stop-opacity="0"/>
</radialGradient>
<radialGradient id="paint1_diamond_303_68" cx="0" cy="0" r="1" gradientUnits="userSpaceOnUse" gradientTransform="translate(-66 51) rotate(87.4209) scale(500.006)">
<stop stop-color="#4D7D98"/>
<stop offset="1" stop-color="#496575" stop-opacity="0"/>
</radialGradient>
<clipPath id="clip0_303_68">
<rect width="1440" height="1148" fill="white"/>
</clipPath>
</defs>
</svg>
